<?xml version="1.0" encoding="UTF-8" standalone="no"?>
<!-- Created with Inkscape (http://www.inkscape.org/) -->

<svg
   width="92.986206mm"
   height="20mm"
   viewBox="0 0 92.986207 20"
   version="1.1"
   id="svg5"
   xmlns:xlink="http://www.w3.org/1999/xlink"
   xmlns="http://www.w3.org/2000/svg"
   xmlns:svg="http://www.w3.org/2000/svg">
  <defs
     id="defs2">
    <linearGradient
       id="linearGradient91698">
      <stop
         style="stop-color:#7eb3df;stop-opacity:1"
         offset="0"
         id="stop91694" />
      <stop
         style="stop-color:#5074be;stop-opacity:1"
         offset="1"
         id="stop91696" />
    </linearGradient>
    <linearGradient
       id="a">
      <stop
         offset="0"
         style="stop-color:#699ad7;stop-opacity:1"
         id="stop11346" />
      <stop
         style="stop-color:#7eb1dd;stop-opacity:1"
         offset=".243"
         id="stop11348" />
      <stop
         offset="1"
         style="stop-color:#7ebae4;stop-opacity:1"
         id="stop11350" />
    </linearGradient>
    <linearGradient
       id="b">
      <stop
         offset="0"
         style="stop-color:#415e9a;stop-opacity:1"
         id="stop11353" />
      <stop
         style="stop-color:#4a6baf;stop-opacity:1"
         offset=".232"
         id="stop11355" />
      <stop
         offset="1"
         style="stop-color:#5277c3;stop-opacity:1"
         id="stop11357" />
    </linearGradient>
    <linearGradient
       y2="506.18799"
       x2="290.08701"
       y1="351.41101"
       x1="200.597"
       gradientTransform="translate(70.65,-1055.151)"
       gradientUnits="userSpaceOnUse"
       id="c"
       xlink:href="#a" />
    <linearGradient
       y2="937.71399"
       x2="-496.297"
       y1="782.336"
       x1="-584.19897"
       gradientTransform="translate(864.696,-1491.34)"
       gradientUnits="userSpaceOnUse"
       id="e"
       xlink:href="#b" />
    <linearGradient
       xlink:href="#linearGradient91698"
       id="linearGradient91700"
       x1="146.36844"
       y1="112.50529"
       x2="105.93412"
       y2="89.160522"
       gradientUnits="userSpaceOnUse"
       gradientTransform="matrix(1.1379831,0,0,1.1379831,7.510563,-7.0371095)" />
  </defs>
  <g
     id="layer1"
     transform="translate(-88.259285,-104.05754)">
    <path
       id="rect846-8"
       clip-path="none"
       style="fill:url(#linearGradient91700);stroke-width:0.208479;stroke-linejoin:round;paint-order:stroke markers fill"
       d="m 134.75711,104.05754 h 46.48838 v 20 h -46.48838 z" />
    <path
       id="rect846"
       style="fill:#ffffff;stroke-width:0.2085;stroke-linejoin:round;paint-order:stroke markers fill"
       d="m 88.259285,104.05754 h 46.497835 v 20 H 88.259285 Z" />
    <g
       id="g102368"
       transform="matrix(1.1379831,0,0,1.1379831,10.773389,-6.8351282)"
       style="stroke-width:0.336006">
      <g
         aria-label="Nix"
         id="text7564"
         style="font-size:10.3096px;line-height:1;font-family:Ubuntu;-inkscape-font-specification:Ubuntu;text-align:center;letter-spacing:0px;word-spacing:0px;text-anchor:middle;stroke-width:0.0811891">
        <path
           d="m 96.304747,102.79724 v 7.32948 h -0.976593 l -3.68991,-5.65317 v 5.65317 h -0.971559 v -7.32948 h 0.971559 l 3.705012,5.66826 v -5.66826 z"
           style="font-family:Roboto;-inkscape-font-specification:Roboto"
           id="path38" />
        <path
           d="m 97.885418,103.23519 q 0,-0.22653 0.135918,-0.38258 0.140951,-0.15605 0.412787,-0.15605 0.266801,0 0.407752,0.15605 0.145986,0.15605 0.145986,0.38258 0,0.21646 -0.145986,0.37252 -0.140951,0.15102 -0.407752,0.15102 -0.271836,0 -0.412787,-0.15102 -0.135918,-0.15606 -0.135918,-0.37252 z m 1.006797,1.44476 v 5.44677 h -0.936321 v -5.44677 z"
           style="font-family:Roboto;-inkscape-font-specification:Roboto"
           id="path40" />
        <path
           d="m 101.01656,104.67995 1.19305,1.98339 1.20816,-1.98339 h 1.09237 l -1.78203,2.68814 1.83741,2.75863 h -1.07728 l -1.25849,-2.0438 -1.2585,2.0438 h -1.082306 l 1.832366,-2.75863 -1.776992,-2.68814 z"
           style="font-family:Roboto;-inkscape-font-specification:Roboto"
           id="path42" />
      </g>
      <g
         transform="matrix(0.03195929,0,0,0.03195929,67.474324,129.1092)"
         style="display:inline;opacity:1;stroke-width:0.336006"
         id="g11376">
        <path
           style="opacity:1;fill:url(#c);fill-opacity:1;fill-rule:evenodd;stroke:none;stroke-width:1.00802;stroke-linecap:butt;stroke-linejoin:round;stroke-miterlimit:4;stroke-dasharray:none;stroke-opacity:1"
           d="m 309.549,-710.388 122.197,211.675 -56.157,0.527 -32.624,-56.87 -32.856,56.566 -27.903,-0.011 -14.29,-24.69 46.81,-80.49 -33.23,-57.826 z"
           id="d" />
        <use
           xlink:href="#d"
           transform="rotate(60,407.112,-715.787)"
           width="100%"
           height="100%"
           id="use11365"
           x="0"
           y="0"
           style="stroke-width:0.336006" />
        <use
           xlink:href="#d"
           transform="rotate(-60,407.312,-715.7)"
           width="100%"
           height="100%"
           id="use11367"
           x="0"
           y="0"
           style="stroke-width:0.336006" />
        <use
           xlink:href="#d"
           transform="rotate(180,407.419,-715.756)"
           width="100%"
           height="100%"
           id="use11369"
           x="0"
           y="0"
           style="stroke-width:0.336006" />
        <path
           id="f"
           d="m 309.549,-710.388 122.197,211.675 -56.157,0.527 -32.624,-56.87 -32.856,56.566 -27.903,-0.011 -14.29,-24.69 46.81,-80.49 -33.23,-57.826 z"
           style="color:#000000;clip-rule:nonzero;display:inline;overflow:visible;visibility:visible;opacity:1;isolation:auto;mix-blend-mode:normal;color-interpolation:sRGB;color-interpolation-filters:linearRGB;solid-color:#000000;solid-opacity:1;fill:url(#e);fill-opacity:1;fill-rule:evenodd;stroke:none;stroke-width:1.00802;stroke-linecap:butt;stroke-linejoin:round;stroke-miterlimit:4;stroke-dasharray:none;stroke-dashoffset:0;stroke-opacity:1;color-rendering:auto;image-rendering:auto;shape-rendering:auto;text-rendering:auto;enable-background:accumulate" />
        <use
           style="display:inline;stroke-width:0.336006"
           xlink:href="#f"
           transform="rotate(120,407.34,-716.084)"
           width="100%"
           height="100%"
           id="use11372"
           x="0"
           y="0" />
        <use
           style="display:inline;stroke-width:0.336006"
           xlink:href="#f"
           transform="rotate(-120,407.288,-715.87)"
           width="100%"
           height="100%"
           id="use11374"
           x="0"
           y="0" />
      </g>
    </g>
    <g
       aria-label="direnv"
       id="text83729"
       style="font-size:11.8722px;line-height:1;font-family:'Fira Code';-inkscape-font-specification:'Fira Code';letter-spacing:0px;word-spacing:0px;fill:#ffffff;stroke-width:0.124659">
      <path
         d="m 145.81041,118.45161 -0.0812,-0.66666 q -0.28984,0.36521 -0.68984,0.57391 -0.39419,0.20869 -0.91592,0.20869 -1.16519,0 -1.80865,-0.90433 -0.64347,-0.90433 -0.64347,-2.27241 v -0.12174 q 0,-1.43185 0.64347,-2.31879 0.64346,-0.88694 1.82025,-0.88694 0.91592,0 1.50721,0.67825 v -3.19413 h 1.68112 v 8.90415 z m -2.45792,-3.0608 q 0,0.7536 0.26667,1.28692 0.26666,0.52753 0.92751,0.52753 0.7652,0 1.09563,-0.64926 v -2.4869 q -0.31883,-0.64927 -1.08403,-0.64927 -0.65506,0 -0.93332,0.53912 -0.27246,0.53332 -0.27246,1.31012 z"
         style="font-weight:bold;font-family:Roboto;-inkscape-font-specification:'Roboto Bold'"
         id="path45" />
      <path
         d="m 148.61615,110.55613 q 0,-0.3768 0.25506,-0.62028 0.25507,-0.24927 0.68405,-0.24927 0.42897,0 0.68404,0.24927 0.25506,0.24348 0.25506,0.62028 0,0.37101 -0.25506,0.62028 -0.25507,0.24347 -0.68404,0.24347 -0.42898,0 -0.68405,-0.24347 -0.25506,-0.24927 -0.25506,-0.62028 z m 1.78546,1.62315 v 6.27233 h -1.68112 v -6.27233 z"
         style="font-weight:bold;font-family:Roboto;-inkscape-font-specification:'Roboto Bold'"
         id="path47" />
      <path
         d="m 154.69717,113.69809 q -0.94491,0 -1.24055,0.64346 v 4.11006 h -1.68112 v -6.27233 h 1.58257 l 0.0522,0.74781 q 0.49275,-0.86375 1.39707,-0.86375 0.31884,0 0.51593,0.0754 l -0.0174,1.60576 q -0.12753,-0.0116 -0.30144,-0.029 -0.16811,-0.0174 -0.30724,-0.0174 z"
         style="font-weight:bold;font-family:Roboto;-inkscape-font-specification:'Roboto Bold'"
         id="path49" />
      <path
         d="m 161.3405,117.43134 q -0.30144,0.42898 -0.91592,0.78259 -0.61448,0.35362 -1.5304,0.35362 -1.46664,0 -2.28981,-0.88694 -0.82317,-0.89273 -0.82317,-2.15068 v -0.22608 q 0,-1.42026 0.78839,-2.33038 0.79419,-0.91013 2.13908,-0.91013 1.3507,0 2.05793,0.84636 0.70723,0.84636 0.70723,2.23763 v 0.71303 h -3.99411 q 0.087,0.60868 0.48115,0.98549 0.39419,0.371 1.03765,0.371 0.9565,0 1.51301,-0.70143 z m -2.64342,-4.0173 q -0.53332,0 -0.82317,0.35941 -0.28985,0.35941 -0.3768,0.93911 h 2.33038 v -0.12753 q -0.0116,-0.50434 -0.28405,-0.83477 -0.26666,-0.33622 -0.84636,-0.33622 z"
         style="font-weight:bold;font-family:Roboto;-inkscape-font-specification:'Roboto Bold'"
         id="path51" />
      <path
         d="m 165.12592,113.41983 q -0.71302,0 -1.06084,0.60289 v 4.42889 h -1.67533 v -6.27233 h 1.57098 l 0.058,0.71883 q 0.67245,-0.83477 1.80286,-0.83477 0.89273,0 1.43765,0.53332 0.54492,0.53333 0.54492,1.86083 v 3.99412 H 166.123 v -3.99991 q 0,-0.60289 -0.26086,-0.81738 -0.25507,-0.21449 -0.73622,-0.21449 z"
         style="font-weight:bold;font-family:Roboto;-inkscape-font-specification:'Roboto Bold'"
         id="path53" />
      <path
         d="m 174.33152,112.17928 -2.1159,6.27233 h -1.59417 l -2.12169,-6.27233 h 1.75648 l 1.1652,4.2144 1.15939,-4.2144 z"
         style="font-weight:bold;font-family:Roboto;-inkscape-font-specification:'Roboto Bold'"
         id="path55" />
    </g>
  </g>
</svg>
