<?xml version="1.0" encoding="UTF-8" standalone="no"?>
<!-- Created with Inkscape (http://www.inkscape.org/) -->

<svg
   width="72.276505mm"
   height="10mm"
   viewBox="0 0 72.276506 9.9999999"
   version="1.1"
   id="svg5"
   xmlns:xlink="http://www.w3.org/1999/xlink"
   xmlns="http://www.w3.org/2000/svg"
   xmlns:svg="http://www.w3.org/2000/svg">
  <defs
     id="defs2">
    <linearGradient
       id="linearGradient91698">
      <stop
         style="stop-color:#7eb3df;stop-opacity:1"
         offset="0"
         id="stop91694" />
      <stop
         style="stop-color:#5074be;stop-opacity:1"
         offset="1"
         id="stop91696" />
    </linearGradient>
    <linearGradient
       id="a">
      <stop
         offset="0"
         style="stop-color:#699ad7;stop-opacity:1"
         id="stop11346" />
      <stop
         style="stop-color:#7eb1dd;stop-opacity:1"
         offset=".243"
         id="stop11348" />
      <stop
         offset="1"
         style="stop-color:#7ebae4;stop-opacity:1"
         id="stop11350" />
    </linearGradient>
    <linearGradient
       id="b">
      <stop
         offset="0"
         style="stop-color:#415e9a;stop-opacity:1"
         id="stop11353" />
      <stop
         style="stop-color:#4a6baf;stop-opacity:1"
         offset=".232"
         id="stop11355" />
      <stop
         offset="1"
         style="stop-color:#5277c3;stop-opacity:1"
         id="stop11357" />
    </linearGradient>
    <linearGradient
       y2="506.18799"
       x2="290.08701"
       y1="351.41101"
       x1="200.597"
       gradientTransform="translate(70.65,-1055.151)"
       gradientUnits="userSpaceOnUse"
       id="c"
       xlink:href="#a" />
    <linearGradient
       y2="937.71399"
       x2="-496.297"
       y1="782.336"
       x1="-584.19897"
       gradientTransform="translate(864.696,-1491.34)"
       gradientUnits="userSpaceOnUse"
       id="e"
       xlink:href="#b" />
    <linearGradient
       xlink:href="#linearGradient91698"
       id="linearGradient91700"
       x1="146.36844"
       y1="112.50529"
       x2="105.93412"
       y2="89.160522"
       gradientUnits="userSpaceOnUse"
       gradientTransform="matrix(0.38236878,0,0,0.38236878,61.127257,66.729109)" />
    <filter
       style="color-interpolation-filters:sRGB"
       id="filter130269"
       x="-0.017572062"
       y="-0.23922894"
       width="1.0351441"
       height="1.4784579">
      <feGaussianBlur
         stdDeviation="0.85323094"
         id="feGaussianBlur130271" />
    </filter>
    <clipPath
       clipPathUnits="userSpaceOnUse"
       id="clipPath132076">
      <rect
         style="fill:#4f73bc;fill-opacity:1;stroke:none;stroke-width:0.496962;stroke-linejoin:round;paint-order:stroke markers fill"
         id="rect132078"
         width="61.641796"
         height="6.7638097"
         x="57.861382"
         y="104.03569"
         ry="1.3065135"
         rx="1.3065134" />
    </clipPath>
  </defs>
  <g
     id="layer1"
     transform="translate(-48.404578,-102.4176)">
    <g
       id="g130377"
       transform="matrix(0.59915775,0,0,0.79018164,14.489079,21.456583)"
       style="stroke:none;stroke-width:1.12385">
      <path
         id="rect61781"
         style="stroke-width:0.722265;stroke-linejoin:round;paint-order:stroke markers fill;filter:url(#filter130269)"
         d="M 60.833629,104.50649 H 173.00713 c 1.20804,0 2.18058,0.73743 2.18058,1.65344 v 5.25294 c 0,0.916 -0.97254,1.65343 -2.18058,1.65343 H 60.833629 c -1.208043,0 -2.180583,-0.73743 -2.180583,-1.65343 v -5.25294 c 0,-0.91601 0.97254,-1.65344 2.180583,-1.65344 z" />
      <path
         id="rect846-3"
         style="fill:#4f73bc;stroke-width:0.722256;stroke-linejoin:round;paint-order:stroke markers fill"
         d="M 60.813827,104.50648 H 172.98328 c 1.20804,0 2.18058,0.73743 2.18058,1.65343 v 5.25295 c 0,0.916 -0.97254,1.65343 -2.18058,1.65343 H 60.813827 c -1.208043,0 -2.180583,-0.73743 -2.180583,-1.65343 v -5.25295 c 0,-0.916 0.97254,-1.65343 2.180583,-1.65343 z" />
    </g>
    <path
       id="rect846-8"
       clip-path="url(#clipPath132076)"
       style="fill:url(#linearGradient91700);stroke-width:0.208479;stroke-linejoin:round;paint-order:stroke markers fill"
       d="m 103.88282,104.05754 h 15.62036 v 6.72011 h -15.62036 z" />
    <path
       id="rect846"
       style="fill:#ffffff;stroke-width:0.2085;stroke-linejoin:round;paint-order:stroke markers fill"
       d="m 88.259285,104.05754 h 15.623535 v 6.72011 H 88.259285 Z" />
    <g
       id="g102368"
       transform="matrix(0.38236878,0,0,0.38236878,62.223585,66.796976)">
      <g
         aria-label="Nix"
         id="text7564"
         style="font-size:10.3096px;line-height:1;font-family:Ubuntu;-inkscape-font-specification:Ubuntu;text-align:center;letter-spacing:0px;word-spacing:0px;text-anchor:middle;stroke-width:0.24163">
        <path
           d="m 96.304747,102.79724 v 7.32948 h -0.976593 l -3.68991,-5.65317 v 5.65317 h -0.971559 v -7.32948 h 0.971559 l 3.705012,5.66826 v -5.66826 z"
           style="font-family:Roboto;-inkscape-font-specification:Roboto"
           id="path49" />
        <path
           d="m 97.885418,103.23519 q 0,-0.22653 0.135918,-0.38258 0.140951,-0.15605 0.412787,-0.15605 0.266801,0 0.407752,0.15605 0.145986,0.15605 0.145986,0.38258 0,0.21646 -0.145986,0.37252 -0.140951,0.15102 -0.407752,0.15102 -0.271836,0 -0.412787,-0.15102 -0.135918,-0.15606 -0.135918,-0.37252 z m 1.006797,1.44476 v 5.44677 h -0.936321 v -5.44677 z"
           style="font-family:Roboto;-inkscape-font-specification:Roboto"
           id="path51" />
        <path
           d="m 101.01656,104.67995 1.19305,1.98339 1.20816,-1.98339 h 1.09237 l -1.78203,2.68814 1.83741,2.75863 h -1.07728 l -1.25849,-2.0438 -1.2585,2.0438 h -1.082306 l 1.832366,-2.75863 -1.776992,-2.68814 z"
           style="font-family:Roboto;-inkscape-font-specification:Roboto"
           id="path53" />
      </g>
      <g
         transform="matrix(0.03195929,0,0,0.03195929,67.474324,129.1092)"
         style="display:inline;opacity:1"
         id="g11376">
        <path
           style="opacity:1;fill:url(#c);fill-opacity:1;fill-rule:evenodd;stroke:none;stroke-width:3;stroke-linecap:butt;stroke-linejoin:round;stroke-miterlimit:4;stroke-dasharray:none;stroke-opacity:1"
           d="m 309.549,-710.388 122.197,211.675 -56.157,0.527 -32.624,-56.87 -32.856,56.566 -27.903,-0.011 -14.29,-24.69 46.81,-80.49 -33.23,-57.826 z"
           id="d" />
        <use
           xlink:href="#d"
           transform="rotate(60,407.112,-715.787)"
           width="100%"
           height="100%"
           id="use11365"
           x="0"
           y="0" />
        <use
           xlink:href="#d"
           transform="rotate(-60,407.312,-715.7)"
           width="100%"
           height="100%"
           id="use11367"
           x="0"
           y="0" />
        <use
           xlink:href="#d"
           transform="rotate(180,407.419,-715.756)"
           width="100%"
           height="100%"
           id="use11369"
           x="0"
           y="0" />
        <path
           id="f"
           d="m 309.549,-710.388 122.197,211.675 -56.157,0.527 -32.624,-56.87 -32.856,56.566 -27.903,-0.011 -14.29,-24.69 46.81,-80.49 -33.23,-57.826 z"
           style="color:#000000;clip-rule:nonzero;display:inline;overflow:visible;visibility:visible;opacity:1;isolation:auto;mix-blend-mode:normal;color-interpolation:sRGB;color-interpolation-filters:linearRGB;solid-color:#000000;solid-opacity:1;fill:url(#e);fill-opacity:1;fill-rule:evenodd;stroke:none;stroke-width:3;stroke-linecap:butt;stroke-linejoin:round;stroke-miterlimit:4;stroke-dasharray:none;stroke-dashoffset:0;stroke-opacity:1;color-rendering:auto;image-rendering:auto;shape-rendering:auto;text-rendering:auto;enable-background:accumulate" />
        <use
           style="display:inline"
           xlink:href="#f"
           transform="rotate(120,407.34,-716.084)"
           width="100%"
           height="100%"
           id="use11372"
           x="0"
           y="0" />
        <use
           style="display:inline"
           xlink:href="#f"
           transform="rotate(-120,407.288,-715.87)"
           width="100%"
           height="100%"
           id="use11374"
           x="0"
           y="0" />
      </g>
    </g>
    <g
       aria-label="Develop this project with"
       id="text15476-6"
       style="font-size:3.52778px;line-height:1;font-family:'Fira Code';-inkscape-font-specification:'Fira Code';letter-spacing:0px;word-spacing:0px;fill:#ffffff;stroke-width:0.122364">
      <path
         d="m 52.238265,108.58957 v -2.50803 h 0.663181 q 0.435805,0 0.701078,0.27733 0.265272,0.27733 0.265272,0.78376 v 0.38757 q 0,0.50471 -0.265272,0.78204 -0.265273,0.27733 -0.706245,0.27733 z m 0.663181,-2.08601 h -0.155029 v 1.66571 h 0.149862 q 0.27044,0 0.366903,-0.14814 0.09819,-0.14814 0.09819,-0.49093 v -0.39102 q 0,-0.34451 -0.09819,-0.4892 -0.09646,-0.14642 -0.361736,-0.14642 z"
         style="font-weight:bold;font-family:'Roboto Condensed';-inkscape-font-specification:'Roboto Condensed,  Bold';text-align:center;baseline-shift:baseline;text-anchor:middle"
         id="path56" />
      <path
         d="m 55.592068,108.34497 q -0.07407,0.0999 -0.234267,0.18948 -0.158474,0.0896 -0.397909,0.0896 -0.380683,0 -0.589111,-0.22738 -0.206706,-0.22737 -0.206706,-0.63217 v -0.15331 q 0,-0.45303 0.19637,-0.68557 0.198093,-0.23427 0.549493,-0.23427 0.70969,0 0.70969,0.90606 v 0.22221 h -0.966349 q 0.0086,0.22221 0.09474,0.31178 0.08785,0.0879 0.244602,0.0879 0.246324,0 0.406521,-0.16881 z m -0.683852,-1.24885 q -0.127469,0 -0.186035,0.0913 -0.05684,0.0896 -0.06718,0.29112 h 0.487481 v -0.0431 q -0.0034,-0.16881 -0.05512,-0.25321 -0.05168,-0.0861 -0.179145,-0.0861 z"
         style="font-weight:bold;font-family:'Roboto Condensed';-inkscape-font-specification:'Roboto Condensed,  Bold';text-align:center;baseline-shift:baseline;text-anchor:middle"
         id="path58" />
      <path
         d="m 57.231934,106.72577 -0.511597,1.8638 h -0.466811 l -0.511597,-1.8638 h 0.509875 l 0.237712,1.17306 0.234266,-1.17306 z"
         style="font-weight:bold;font-family:'Roboto Condensed';-inkscape-font-specification:'Roboto Condensed,  Bold';text-align:center;baseline-shift:baseline;text-anchor:middle"
         id="path60" />
      <path
         d="m 58.821847,108.34497 q -0.07407,0.0999 -0.234267,0.18948 -0.158474,0.0896 -0.397908,0.0896 -0.380684,0 -0.589112,-0.22738 -0.206706,-0.22737 -0.206706,-0.63217 v -0.15331 q 0,-0.45303 0.196371,-0.68557 0.198093,-0.23427 0.549493,-0.23427 0.70969,0 0.70969,0.90606 v 0.22221 h -0.96635 q 0.0086,0.22221 0.09474,0.31178 0.08785,0.0879 0.244602,0.0879 0.246324,0 0.406521,-0.16881 z m -0.683852,-1.24885 q -0.127469,0 -0.186035,0.0913 -0.05684,0.0896 -0.06718,0.29112 h 0.487482 v -0.0431 q -0.0034,-0.16881 -0.05512,-0.25321 -0.05168,-0.0861 -0.179145,-0.0861 z"
         style="font-weight:bold;font-family:'Roboto Condensed';-inkscape-font-specification:'Roboto Condensed,  Bold';text-align:center;baseline-shift:baseline;text-anchor:middle"
         id="path62" />
      <path
         d="m 59.638335,105.94373 v 2.64584 h -0.489204 v -2.64584 z"
         style="font-weight:bold;font-family:'Roboto Condensed';-inkscape-font-specification:'Roboto Condensed,  Bold';text-align:center;baseline-shift:baseline;text-anchor:middle"
         id="path64" />
      <path
         d="m 59.962174,107.71968 v -0.1223 q 0,-0.43925 0.203261,-0.67179 0.204983,-0.23427 0.549493,-0.23427 0.347955,0 0.551216,0.23427 0.204983,0.23254 0.204983,0.67179 v 0.1223 q 0,0.43925 -0.204983,0.6718 -0.203261,0.23254 -0.547771,0.23254 -0.346232,0 -0.551216,-0.23254 -0.204983,-0.23255 -0.204983,-0.6718 z m 0.487481,-0.1223 v 0.1223 q 0,0.49954 0.268718,0.49954 0.265273,0 0.265273,-0.49954 v -0.1223 q 0,-0.50126 -0.268718,-0.50126 -0.265273,0 -0.265273,0.50126 z"
         style="font-weight:bold;font-family:'Roboto Condensed';-inkscape-font-specification:'Roboto Condensed,  Bold';text-align:center;baseline-shift:baseline;text-anchor:middle"
         id="path66" />
      <path
         d="m 62.626958,108.62402 q -0.225654,0 -0.366903,-0.18604 v 0.86817 h -0.485759 v -2.58038 h 0.449585 l 0.01723,0.17053 q 0.142971,-0.20498 0.382405,-0.20498 0.602893,0 0.602893,0.90262 v 0.1223 q 0,0.43752 -0.151585,0.67351 -0.149861,0.23427 -0.447862,0.23427 z m -0.14814,-1.52618 q -0.151584,0 -0.218763,0.12919 v 0.86817 q 0.06718,0.12402 0.222208,0.12402 0.144695,0 0.199816,-0.1223 0.05684,-0.1223 0.05684,-0.38068 v -0.1223 q 0,-0.26528 -0.05857,-0.38069 -0.05857,-0.11541 -0.201539,-0.11541 z"
         style="font-weight:bold;font-family:'Roboto Condensed';-inkscape-font-specification:'Roboto Condensed,  Bold';text-align:center;baseline-shift:baseline;text-anchor:middle"
         id="path68" />
      <path
         d="m 65.159104,108.57751 q -0.05684,0.0224 -0.120578,0.0344 -0.06373,0.0121 -0.149862,0.0121 -0.217041,0 -0.346232,-0.12747 -0.129191,-0.12747 -0.129191,-0.42547 v -0.97841 H 64.1962 v -0.3669 h 0.217041 v -0.45992 H 64.899 v 0.45992 h 0.249769 v 0.3669 H 64.899 v 0.92501 q 0,0.11714 0.03273,0.15503 0.03445,0.0379 0.113688,0.0379 0.06718,0 0.115411,-0.0138 z"
         style="font-weight:bold;font-family:'Roboto Condensed';-inkscape-font-specification:'Roboto Condensed,  Bold';text-align:center;baseline-shift:baseline;text-anchor:middle"
         id="path70" />
      <path
         d="m 66.099616,107.09784 q -0.137804,0 -0.208429,0.12575 v 1.36598 h -0.487481 v -2.64584 h 0.487481 v 0.94568 q 0.158475,-0.19809 0.391019,-0.19809 0.230821,0 0.375515,0.16364 0.144695,0.16364 0.144695,0.55983 v 1.17478 h -0.487482 v -1.17822 q 0,-0.17915 -0.05512,-0.24633 -0.0534,-0.0672 -0.160197,-0.0672 z"
         style="font-weight:bold;font-family:'Roboto Condensed';-inkscape-font-specification:'Roboto Condensed,  Bold';text-align:center;baseline-shift:baseline;text-anchor:middle"
         id="path72" />
      <path
         d="m 67.152093,106.24346 q 0,-0.11369 0.07235,-0.18604 0.07235,-0.0741 0.194648,-0.0741 0.120578,0 0.192925,0.0741 0.07235,0.0724 0.07235,0.18604 0,0.11196 -0.07235,0.18603 -0.07235,0.0724 -0.192925,0.0724 -0.122301,0 -0.194648,-0.0724 -0.07235,-0.0741 -0.07235,-0.18603 z m 0.511597,0.48231 v 1.8638 h -0.489204 v -1.8638 z"
         style="font-weight:bold;font-family:'Roboto Condensed';-inkscape-font-specification:'Roboto Condensed,  Bold';text-align:center;baseline-shift:baseline;text-anchor:middle"
         id="path74" />
      <path
         d="m 68.867752,108.09003 q 0,-0.0724 -0.07407,-0.12747 -0.07407,-0.0551 -0.248047,-0.13091 -0.254937,-0.0999 -0.392741,-0.22738 -0.136081,-0.12747 -0.136081,-0.3514 0,-0.23254 0.170532,-0.39619 0.170532,-0.16536 0.473701,-0.16536 0.313504,0 0.494372,0.16192 0.180867,0.1602 0.180867,0.42202 h -0.487481 q 0,-0.22909 -0.18948,-0.22909 -0.1757,0 -0.1757,0.18259 0,0.0723 0.06718,0.1223 0.0689,0.0499 0.248047,0.12402 0.279053,0.10508 0.409967,0.23427 0.132636,0.12919 0.132636,0.36001 0,0.24805 -0.184313,0.40135 -0.184313,0.15331 -0.496094,0.15331 -0.337619,0 -0.516765,-0.1912 -0.177422,-0.19293 -0.177422,-0.4203 h 0.461643 q 0.0034,0.15158 0.07062,0.20326 0.06718,0.0517 0.172255,0.0517 0.196371,0 0.196371,-0.17742 z"
         style="font-weight:bold;font-family:'Roboto Condensed';-inkscape-font-specification:'Roboto Condensed,  Bold';text-align:center;baseline-shift:baseline;text-anchor:middle"
         id="path76" />
      <path
         d="m 71.312049,108.62402 q -0.225654,0 -0.366903,-0.18604 v 0.86817 h -0.485759 v -2.58038 h 0.449585 l 0.01723,0.17053 q 0.142971,-0.20498 0.382405,-0.20498 0.602893,0 0.602893,0.90262 v 0.1223 q 0,0.43752 -0.151585,0.67351 -0.149861,0.23427 -0.447862,0.23427 z m -0.14814,-1.52618 q -0.151584,0 -0.218763,0.12919 v 0.86817 q 0.06718,0.12402 0.222208,0.12402 0.144695,0 0.199816,-0.1223 0.05684,-0.1223 0.05684,-0.38068 v -0.1223 q 0,-0.26528 -0.05857,-0.38069 -0.05857,-0.11541 -0.201539,-0.11541 z"
         style="font-weight:bold;font-family:'Roboto Condensed';-inkscape-font-specification:'Roboto Condensed,  Bold';text-align:center;baseline-shift:baseline;text-anchor:middle"
         id="path78" />
      <path
         d="m 72.963972,107.18225 q -0.20326,0 -0.272162,0.17397 v 1.23335 h -0.487482 v -1.8638 h 0.459921 l 0.01378,0.20154 q 0.117134,-0.23599 0.318672,-0.23599 0.07924,0 0.132636,0.0207 l -0.0052,0.48404 q -0.08613,-0.0138 -0.160198,-0.0138 z"
         style="font-weight:bold;font-family:'Roboto Condensed';-inkscape-font-specification:'Roboto Condensed,  Bold';text-align:center;baseline-shift:baseline;text-anchor:middle"
         id="path80" />
      <path
         d="m 73.256806,107.71968 v -0.1223 q 0,-0.43925 0.203261,-0.67179 0.204983,-0.23427 0.549493,-0.23427 0.347955,0 0.551216,0.23427 0.204983,0.23254 0.204983,0.67179 v 0.1223 q 0,0.43925 -0.204983,0.6718 -0.203261,0.23254 -0.547771,0.23254 -0.346232,0 -0.551216,-0.23254 -0.204983,-0.23255 -0.204983,-0.6718 z m 0.487481,-0.1223 v 0.1223 q 0,0.49954 0.268718,0.49954 0.265273,0 0.265273,-0.49954 v -0.1223 q 0,-0.50126 -0.268718,-0.50126 -0.265273,0 -0.265273,0.50126 z"
         style="font-weight:bold;font-family:'Roboto Condensed';-inkscape-font-specification:'Roboto Condensed,  Bold';text-align:center;baseline-shift:baseline;text-anchor:middle"
         id="path82" />
      <path
         d="m 75.058593,106.24346 q 0,-0.11369 0.07235,-0.18604 0.07235,-0.0741 0.192925,-0.0741 0.122301,0 0.194648,0.0741 0.07235,0.0724 0.07235,0.18604 0,0.11196 -0.07235,0.18603 -0.07235,0.0724 -0.194648,0.0724 -0.120578,0 -0.192925,-0.0724 -0.07235,-0.0741 -0.07235,-0.18603 z m 0.03273,0.48231 h 0.489204 v 1.96543 q 0,0.31523 -0.148139,0.48231 -0.146417,0.16881 -0.41169,0.16881 -0.117133,0 -0.223931,-0.0293 v -0.39619 q 0.07752,0.0138 0.130914,0.0138 0.163642,0 0.163642,-0.23943 z"
         style="font-weight:bold;font-family:'Roboto Condensed';-inkscape-font-specification:'Roboto Condensed,  Bold';text-align:center;baseline-shift:baseline;text-anchor:middle"
         id="path84" />
      <path
         d="m 77.318576,108.34497 q -0.07407,0.0999 -0.234266,0.18948 -0.158475,0.0896 -0.397909,0.0896 -0.380683,0 -0.589112,-0.22738 -0.206706,-0.22737 -0.206706,-0.63217 v -0.15331 q 0,-0.45303 0.196371,-0.68557 0.198093,-0.23427 0.549493,-0.23427 0.70969,0 0.70969,0.90606 v 0.22221 h -0.96635 q 0.0086,0.22221 0.09474,0.31178 0.08785,0.0879 0.244602,0.0879 0.246325,0 0.406522,-0.16881 z m -0.683852,-1.24885 q -0.127468,0 -0.186035,0.0913 -0.05684,0.0896 -0.06718,0.29112 h 0.487481 v -0.0431 q -0.0034,-0.16881 -0.05512,-0.25321 -0.05168,-0.0861 -0.179145,-0.0861 z"
         style="font-weight:bold;font-family:'Roboto Condensed';-inkscape-font-specification:'Roboto Condensed,  Bold';text-align:center;baseline-shift:baseline;text-anchor:middle"
         id="path86" />
      <path
         d="m 78.298707,108.21922 q 0.213596,0 0.213596,-0.27561 h 0.458198 q -0.0017,0.31867 -0.192925,0.49954 -0.18948,0.18087 -0.470256,0.18087 -0.375515,0 -0.558106,-0.23599 -0.18259,-0.23599 -0.18259,-0.66318 v -0.13436 q 0,-0.42719 0.18259,-0.66318 0.182591,-0.23599 0.556384,-0.23599 0.299723,0 0.480591,0.18604 0.18259,0.18603 0.184312,0.54432 h -0.458198 q 0,-0.32556 -0.217041,-0.32556 -0.160197,0 -0.201538,0.12747 -0.03962,0.12747 -0.03962,0.3669 v 0.13436 q 0,0.24632 0.03962,0.37035 0.03962,0.12402 0.204983,0.12402 z"
         style="font-weight:bold;font-family:'Roboto Condensed';-inkscape-font-specification:'Roboto Condensed,  Bold';text-align:center;baseline-shift:baseline;text-anchor:middle"
         id="path88" />
      <path
         d="m 80.072932,108.57751 q -0.05684,0.0224 -0.120578,0.0344 -0.06373,0.0121 -0.149862,0.0121 -0.217041,0 -0.346232,-0.12747 -0.129191,-0.12747 -0.129191,-0.42547 v -0.97841 h -0.217041 v -0.3669 h 0.217041 v -0.45992 h 0.485758 v 0.45992 h 0.24977 v 0.3669 h -0.24977 v 0.92501 q 0,0.11714 0.03273,0.15503 0.03445,0.0379 0.113688,0.0379 0.06718,0 0.115411,-0.0138 z"
         style="font-weight:bold;font-family:'Roboto Condensed';-inkscape-font-specification:'Roboto Condensed,  Bold';text-align:center;baseline-shift:baseline;text-anchor:middle"
         id="path90" />
      <path
         d="m 83.135624,106.72577 -0.385851,1.8638 h -0.406521 l -0.26355,-1.07659 -0.26355,1.07659 h -0.404799 l -0.387574,-1.8638 h 0.468534 l 0.167087,1.04214 0.246324,-1.04214 h 0.347955 l 0.248047,1.04387 0.165365,-1.04387 z"
         style="font-weight:bold;font-family:'Roboto Condensed';-inkscape-font-specification:'Roboto Condensed,  Bold';text-align:center;baseline-shift:baseline;text-anchor:middle"
         id="path92" />
      <path
         d="m 83.375057,106.24346 q 0,-0.11369 0.07235,-0.18604 0.07235,-0.0741 0.194648,-0.0741 0.120579,0 0.192926,0.0741 0.07235,0.0724 0.07235,0.18604 0,0.11196 -0.07235,0.18603 -0.07235,0.0724 -0.192926,0.0724 -0.122301,0 -0.194648,-0.0724 -0.07235,-0.0741 -0.07235,-0.18603 z m 0.511597,0.48231 v 1.8638 H 83.39745 v -1.8638 z"
         style="font-weight:bold;font-family:'Roboto Condensed';-inkscape-font-specification:'Roboto Condensed,  Bold';text-align:center;baseline-shift:baseline;text-anchor:middle"
         id="path94" />
      <path
         d="m 85.092441,108.57751 q -0.05684,0.0224 -0.120579,0.0344 -0.06373,0.0121 -0.149861,0.0121 -0.217042,0 -0.346233,-0.12747 -0.129191,-0.12747 -0.129191,-0.42547 v -0.97841 h -0.217041 v -0.3669 h 0.217041 v -0.45992 h 0.485759 v 0.45992 h 0.249769 v 0.3669 h -0.249769 v 0.92501 q 0,0.11714 0.03273,0.15503 0.03445,0.0379 0.113688,0.0379 0.06718,0 0.115411,-0.0138 z"
         style="font-weight:bold;font-family:'Roboto Condensed';-inkscape-font-specification:'Roboto Condensed,  Bold';text-align:center;baseline-shift:baseline;text-anchor:middle"
         id="path96" />
      <path
         d="m 86.03295,107.09784 q -0.137804,0 -0.208428,0.12575 v 1.36598 H 85.33704 v -2.64584 h 0.487482 v 0.94568 q 0.158474,-0.19809 0.391018,-0.19809 0.230822,0 0.375516,0.16364 0.144694,0.16364 0.144694,0.55983 v 1.17478 h -0.487481 v -1.17822 q 0,-0.17915 -0.05512,-0.24633 -0.0534,-0.0672 -0.160197,-0.0672 z"
         style="font-weight:bold;font-family:'Roboto Condensed';-inkscape-font-specification:'Roboto Condensed,  Bold';text-align:center;baseline-shift:baseline;text-anchor:middle"
         id="path98" />
    </g>
    <g
       aria-label="direnv"
       id="text83729"
       style="font-size:3.98911px;line-height:1;font-family:'Fira Code';-inkscape-font-specification:'Fira Code';letter-spacing:0px;word-spacing:0px;fill:#ffffff;stroke-width:0.124659">
      <path
         d="m 107.59678,108.89403 -0.0273,-0.224 q -0.0974,0.12271 -0.23179,0.19283 -0.13245,0.0701 -0.30775,0.0701 -0.39151,0 -0.60772,-0.30385 -0.2162,-0.30386 -0.2162,-0.76354 v -0.0409 q 0,-0.48111 0.2162,-0.77912 0.21621,-0.29802 0.61162,-0.29802 0.30775,0 0.50643,0.2279 v -1.07324 h 0.56486 v 2.99183 z m -0.82587,-1.02844 q 0,0.25321 0.0896,0.43241 0.0896,0.17725 0.31165,0.17725 0.25711,0 0.36814,-0.21816 v -0.8356 q -0.10713,-0.21816 -0.36424,-0.21816 -0.22011,0 -0.3136,0.18115 -0.0915,0.1792 -0.0915,0.4402 z"
         style="font-weight:bold;font-family:Roboto;-inkscape-font-specification:'Roboto Bold'"
         id="path101" />
      <path
         d="m 108.53952,106.24111 q 0,-0.1266 0.0857,-0.20841 0.0857,-0.0838 0.22985,-0.0838 0.14413,0 0.22984,0.0838 0.0857,0.0818 0.0857,0.20841 0,0.12466 -0.0857,0.20842 -0.0857,0.0818 -0.22984,0.0818 -0.14414,0 -0.22985,-0.0818 -0.0857,-0.0838 -0.0857,-0.20842 z m 0.59993,0.54539 v 2.10753 h -0.56487 v -2.10753 z"
         style="font-weight:bold;font-family:Roboto;-inkscape-font-specification:'Roboto Bold'"
         id="path103" />
      <path
         d="m 110.58277,107.29683 q -0.31749,0 -0.41683,0.2162 v 1.381 h -0.56486 v -2.10753 h 0.53175 l 0.0175,0.25127 q 0.16556,-0.29023 0.46942,-0.29023 0.10713,0 0.17335,0.0253 l -0.006,0.53954 q -0.0429,-0.004 -0.10129,-0.01 -0.0565,-0.006 -0.10323,-0.006 z"
         style="font-weight:bold;font-family:Roboto;-inkscape-font-specification:'Roboto Bold'"
         id="path105" />
      <path
         d="m 112.81496,108.55121 q -0.10129,0.14414 -0.30776,0.26296 -0.20646,0.11881 -0.51422,0.11881 -0.49279,0 -0.76938,-0.29801 -0.27659,-0.29996 -0.27659,-0.72264 v -0.076 q 0,-0.47721 0.2649,-0.78302 0.26685,-0.30581 0.71874,-0.30581 0.45384,0 0.69148,0.28438 0.23763,0.28438 0.23763,0.75186 v 0.23958 h -1.34204 q 0.0292,0.20452 0.16167,0.33113 0.13245,0.12465 0.34865,0.12465 0.32139,0 0.50838,-0.23568 z m -0.8882,-1.34983 q -0.1792,0 -0.27659,0.12077 -0.0974,0.12076 -0.12661,0.31554 h 0.78302 v -0.0429 q -0.004,-0.16946 -0.0954,-0.28048 -0.0896,-0.11298 -0.28438,-0.11298 z"
         style="font-weight:bold;font-family:Roboto;-inkscape-font-specification:'Roboto Bold'"
         id="path107" />
      <path
         d="m 114.08688,107.20333 q -0.23958,0 -0.35645,0.20257 v 1.48813 h -0.56292 v -2.10753 h 0.52786 l 0.0195,0.24153 q 0.22594,-0.28049 0.60576,-0.28049 0.29997,0 0.48306,0.1792 0.18309,0.1792 0.18309,0.62525 v 1.34204 h -0.56486 v -1.34399 q 0,-0.20257 -0.0876,-0.27464 -0.0857,-0.0721 -0.24737,-0.0721 z"
         style="font-weight:bold;font-family:Roboto;-inkscape-font-specification:'Roboto Bold'"
         id="path109" />
      <path
         d="m 117.17999,106.7865 -0.71094,2.10753 h -0.53565 l -0.7129,-2.10753 h 0.59019 l 0.39151,1.41606 0.38956,-1.41606 z"
         style="font-weight:bold;font-family:Roboto;-inkscape-font-specification:'Roboto Bold'"
         id="path111" />
    </g>
  </g>
</svg>
